<?xml version="1.0" encoding="UTF-8" standalone="no"?>
<!-- Created with Inkscape (http://www.inkscape.org/) -->

<svg
   width="12.109646mm"
   height="12.7mm"
   viewBox="0 0 12.109646 12.7"
   version="1.1"
   id="svg5"
   xml:space="preserve"
   sodipodi:docname="Coaches.svg"
   inkscape:version="1.2.2 (732a01da63, 2022-12-09)"
   xmlns:inkscape="http://www.inkscape.org/namespaces/inkscape"
   xmlns:sodipodi="http://sodipodi.sourceforge.net/DTD/sodipodi-0.dtd"
   xmlns="http://www.w3.org/2000/svg"
   xmlns:svg="http://www.w3.org/2000/svg"><sodipodi:namedview
     id="namedview7"
     pagecolor="#ffffff"
     bordercolor="#000000"
     borderopacity="0.25"
     inkscape:showpageshadow="2"
     inkscape:pageopacity="0.0"
     inkscape:pagecheckerboard="0"
     inkscape:deskcolor="#d1d1d1"
     inkscape:document-units="mm"
     showgrid="false"
     inkscape:zoom="2.6053829"
     inkscape:cx="-46.634219"
     inkscape:cy="26.867452"
     inkscape:window-width="1360"
     inkscape:window-height="697"
     inkscape:window-x="-8"
     inkscape:window-y="-8"
     inkscape:window-maximized="1"
     inkscape:current-layer="layer1" /><defs
     id="defs2" /><g
     inkscape:label="Layer 1"
     inkscape:groupmode="layer"
     id="layer1"
     transform="translate(-23.134068,-174.81163)"><g
       id="g8954"
       transform="matrix(1.0085735,0,0,1.0085735,-0.19834013,-1.498749)"
       style="fill:#ffcd00;fill-opacity:1"><path
         style="fill:#ffcd00;fill-opacity:1;stroke-width:0.0846667"
         d="m 23.846577,187.3118 c -0.336477,-0.15318 -0.608986,-0.50268 -0.677755,-0.86925 -0.06102,-0.32525 0.545946,-3.13126 0.803497,-3.71458 0.210548,-0.47687 0.650204,-0.82895 1.374562,-1.10075 1.501422,-0.56338 1.699918,-0.69765 1.797244,-1.21568 0.04255,-0.22649 0.0115,-0.33427 -0.152474,-0.52914 -0.113251,-0.13459 -0.252103,-0.37245 -0.30856,-0.52858 -0.0724,-0.20022 -0.184958,-0.31363 -0.38196,-0.38487 -0.358099,-0.12949 -0.62704,-0.56153 -0.62704,-1.00731 0,-0.28657 0.04743,-0.38339 0.285438,-0.58268 0.239548,-0.20057 0.300532,-0.32639 0.379316,-0.78262 0.198914,-1.15186 0.963941,-1.78471 2.157482,-1.78471 0.624699,0 1.110713,0.21542 1.527937,0.67724 0.300844,0.333 0.560494,1.00817 0.560494,1.45745 0,0.15175 0.05498,0.26235 0.148166,0.29802 0.654377,0.25053 0.553499,1.42376 -0.148463,1.72666 -0.177732,0.0767 -0.336652,0.24786 -0.466669,0.50262 -0.108437,0.21247 -0.253014,0.43267 -0.321283,0.48933 -0.09051,0.0751 -0.106407,0.17685 -0.0587,0.37568 0.115939,0.48317 0.183863,0.5734 0.582344,0.77363 0.595691,0.29933 0.772601,0.34006 0.772601,0.17787 0,-0.25029 0.254368,-0.63336 0.453813,-0.68342 0.254574,-0.0639 3.282994,0.92638 3.472119,1.13536 0.18223,0.20136 0.183239,0.19321 -0.154016,1.24468 l -0.292085,0.91064 0.165085,0.20987 c 0.215487,0.27395 0.208228,0.48381 -0.04042,1.16884 -0.236889,0.65262 -0.353437,0.79513 -0.678631,0.8298 -0.206448,0.022 -0.2562,0.0898 -0.416009,0.56653 -0.267042,0.79666 -0.293973,0.79899 -2.174448,0.18828 -1.965226,-0.63824 -1.966982,-0.63994 -1.653247,-1.60026 1.162255,-3.55755 1.10645,-3.35027 0.93558,-3.47521 -0.24434,-0.17867 -0.269291,-0.15015 -0.328799,0.37584 -0.06716,0.59358 -0.440847,1.40723 -0.802304,1.74689 -0.151556,0.14242 -0.264634,0.33415 -0.264634,0.44871 0,0.52182 -0.507586,1.01943 -1.267794,1.24287 -0.254904,0.0749 -0.597804,0.2431 -0.762,0.37374 -1.439572,1.14536 -2.745732,1.65382 -3.438387,1.33851 z m 1.446514,-0.59871 c 0.441204,-0.19849 1.293857,-0.72124 1.49327,-0.91551 0.311339,-0.3033 0.744477,-0.57195 0.922157,-0.57195 0.290497,0 0.894739,-0.31624 1.046348,-0.54763 0.10073,-0.15373 0.119436,-0.3295 0.08,-0.75177 l -0.05146,-0.55112 -0.432824,0.32022 c -0.238053,0.17611 -0.504328,0.34549 -0.591722,0.37638 -0.230678,0.0815 -0.391435,-0.0941 -0.391435,-0.42777 0,-0.47869 -0.146951,-0.23894 -0.2561,0.41783 -0.05608,0.33744 -0.136344,0.65631 -0.178364,0.7086 -0.04202,0.0523 -0.57231,0.26183 -1.178421,0.46566 -0.910744,0.30628 -1.114873,0.34989 -1.176068,0.25128 -0.112421,-0.18116 -0.02847,-0.30386 0.285594,-0.41742 0.263904,-0.0954 0.291484,-0.14113 0.376509,-0.62383 0.09605,-0.54527 0.222891,-0.71476 0.415361,-0.55503 0.08317,0.069 0.09905,0.20756 0.05801,0.50598 l -0.05652,0.41093 0.452833,-0.17211 c 0.249058,-0.0947 0.457131,-0.17213 0.462384,-0.17216 0.0053,-2e-5 0.05503,-0.28199 0.110626,-0.6266 0.09164,-0.56808 0.08482,-0.67609 -0.07305,-1.15699 -0.09577,-0.29173 -0.174127,-0.59807 -0.174127,-0.68077 0,-0.25104 -0.133052,-0.25721 -0.726785,-0.0337 -0.738744,0.27806 -1.11235,0.51356 -1.256026,0.79173 -0.171941,0.33288 -0.811617,3.06001 -0.808496,3.44685 0.0062,0.77281 0.632172,0.96607 1.648307,0.50893 z m 7.900373,-0.26158 0.167549,-0.42513 -0.202794,-0.23576 c -0.242209,-0.28159 -0.247002,-0.42734 -0.03909,-1.18887 0.187541,-0.68691 0.309946,-0.83238 0.700389,-0.83238 h 0.29078 l 0.277562,-0.8468 c 0.152659,-0.46574 0.245238,-0.87604 0.20573,-0.91178 -0.09684,-0.0876 -2.672342,-0.93382 -2.84209,-0.93382 -0.100456,0 -0.288332,0.47571 -0.743985,1.88383 -0.335274,1.03611 -0.682908,2.10484 -0.772519,2.37496 -0.08961,0.27011 -0.142712,0.52383 -0.118003,0.56381 0.02471,0.04 0.43534,0.19558 0.912512,0.34577 0.477172,0.1502 1.115235,0.35923 1.417918,0.46451 0.302684,0.10529 0.556669,0.18589 0.564412,0.17911 0.0077,-0.007 0.08948,-0.20363 0.181629,-0.43745 z m -1.731422,-0.25221 c -0.07599,-0.19802 0.03129,-0.381 0.223382,-0.381 0.215411,0 0.309121,0.21257 0.168439,0.38208 -0.134444,0.16199 -0.329449,0.16146 -0.391821,-0.001 z m 2.821806,-1.10067 c 0.245708,-0.67284 0.243391,-0.69075 -0.104249,-0.80548 -0.419635,-0.13849 -0.517032,-0.0724 -0.623242,0.42282 -0.133104,0.62065 -0.122393,0.87775 0.03407,0.81771 0.06985,-0.0268 0.127,-0.009 0.127,0.0392 0,0.0483 0.08571,0.0757 0.190456,0.0608 0.147179,-0.0209 0.232611,-0.14249 0.375968,-0.53506 z m -4.427024,-2.5443 c 0.195036,-0.77644 0.179203,-1.08657 -0.06206,-1.21569 -0.222062,-0.11885 -0.480002,-0.51021 -0.480002,-0.7283 0,-0.10392 -0.04135,-0.12725 -0.148167,-0.0836 -0.478543,0.19564 -0.720589,0.2178 -1.115205,0.10212 l -0.408312,-0.11969 -0.179877,0.37024 c -0.100857,0.2076 -0.276913,0.41446 -0.400763,0.47089 -0.212269,0.0967 -0.218686,0.12007 -0.164516,0.59887 0.07031,0.62147 0.175369,0.90578 0.334705,0.90578 0.06786,0 0.146494,-0.0728 0.174731,-0.16176 0.06917,-0.21792 0.416419,-0.43495 0.655027,-0.40937 0.152807,0.0164 0.188944,-0.0166 0.170047,-0.15499 -0.01745,-0.12783 0.111958,-0.2826 0.474314,-0.56729 l 0.498309,-0.39149 0.26652,0.27498 c 0.146586,0.15124 0.26652,0.31354 0.26652,0.36067 0,0.0471 -0.172949,0.28832 -0.384332,0.53596 -0.35107,0.41129 -0.373053,0.46272 -0.254,0.59427 0.07168,0.0792 0.130332,0.19272 0.130332,0.25224 0,0.0614 0.05493,0.0872 0.127,0.0595 0.06985,-0.0268 0.127,-0.0106 0.127,0.0359 0,0.0466 -0.05715,0.1066 -0.127,0.1334 -0.06985,0.0268 -0.125451,0.0923 -0.123559,0.14551 0.0019,0.0532 0.112472,-0.0307 0.245733,-0.18645 0.145092,-0.16961 0.296557,-0.49927 0.377559,-0.82174 z m -1.573306,0.67504 c 0.194649,-0.16661 0.353907,-0.37256 0.353907,-0.45766 0,-0.0851 0.13335,-0.31433 0.296333,-0.50941 0.310833,-0.37204 0.363277,-0.508 0.195957,-0.508 -0.170433,0 -0.49229,0.35838 -0.49229,0.54816 0,0.25544 -0.159889,0.38317 -0.479622,0.38317 -0.301228,0 -0.451712,0.17679 -0.451712,0.53066 0,0.40336 0.118344,0.40604 0.577427,0.0131 z m 0.841363,-3.24792 c 0.500679,-0.36269 0.848314,-1.11995 0.919011,-2.0019 l 0.05486,-0.68442 -0.413166,-0.11991 c -0.525167,-0.15243 -2.067278,-0.1569 -2.562875,-0.007 l -0.371711,0.1121 0.05247,0.62071 c 0.06747,0.79821 0.319421,1.46429 0.70344,1.85971 0.535063,0.55093 1.063075,0.6231 1.617969,0.22114 z m -2.773456,-1.91721 c 0,-0.27258 -0.03149,-0.37768 -0.105834,-0.3532 -0.143745,0.0473 -0.179462,0.35525 -0.06584,0.56756 0.137893,0.25766 0.171671,0.21548 0.171671,-0.21436 z m 4.26291,0.17368 c -0.06716,-0.17501 -0.114244,-0.15439 -0.114244,0.05 0,0.0959 0.03644,0.15181 0.08097,0.12429 0.04453,-0.0275 0.05951,-0.10597 0.03327,-0.17433 z m 0.139756,-0.21395 c 0,-0.0959 -0.03644,-0.15181 -0.08097,-0.12429 -0.04453,0.0275 -0.05951,0.10597 -0.03327,0.17433 0.06716,0.17502 0.114244,0.15439 0.114244,-0.05 z m -2.278289,-1.43333 c 0.455686,-5.7e-4 0.985147,0.0511 1.2065,0.11771 0.340665,0.10252 0.394456,0.10224 0.394456,-0.002 0,-0.2777 -1.405377,-0.51318 -2.216286,-0.37135 -0.748674,0.13094 -1.085714,0.2491 -1.085714,0.38064 0,0.0932 0.0771,0.0922 0.4445,-0.006 0.244475,-0.0651 0.80992,-0.11878 1.256544,-0.11933 z m -0.219377,-0.70695 c 0.4191,-0.007 0.949857,0.0186 1.179461,0.0575 l 0.41746,0.0707 -0.130057,-0.19588 c -0.327668,-0.49349 -1.327695,-0.73166 -1.956417,-0.46594 -0.277021,0.11708 -0.738114,0.52707 -0.738114,0.65631 0,0.0391 0.104775,0.0304 0.232833,-0.0193 0.128059,-0.0497 0.575734,-0.0962 0.994834,-0.10347 z m -3.647573,5.19591 c -0.246615,-0.0998 -0.626324,-0.572 -0.637066,-0.7923 -0.0049,-0.1012 -0.0026,-0.28381 0.0052,-0.40579 0.01127,-0.17612 -0.07406,-0.28657 -0.414362,-0.53638 -0.235706,-0.17302 -0.428556,-0.32821 -0.428556,-0.34487 0,-0.0956 0.368264,-0.63263 0.43381,-0.63263 0.211866,0 1.259524,0.60812 1.259524,0.7311 0,0.10886 0.02448,0.11599 0.121588,0.0354 0.09409,-0.0781 0.165885,-0.0781 0.3175,-2e-5 0.278919,0.14364 0.661578,0.51581 0.661578,0.64345 0,0.0595 0.1143,0.22517 0.254,0.36808 0.1397,0.14291 0.254,0.32882 0.254,0.41313 0,0.24613 -0.298009,0.4621 -0.550272,0.39879 -0.13784,-0.0346 -0.286619,-0.007 -0.403251,0.0746 -0.199991,0.14008 -0.592073,0.16136 -0.873716,0.0474 z m 0.811239,-0.51063 c 0.372799,-0.3728 0.06986,-1.08501 -0.419849,-0.98707 -0.257751,0.0516 -0.596151,-0.13412 -0.596151,-0.32709 0,-0.12186 -0.155448,-0.22904 -0.549472,-0.37885 -0.289913,-0.11022 -0.21541,0.0175 0.259564,0.44488 0.333069,0.29971 0.35119,0.33972 0.311866,0.6886 -0.03375,0.2994 -0.0074,0.40476 0.13748,0.54963 0.22748,0.22748 0.634278,0.23218 0.856562,0.01 z"
         id="path3133" /></g></g></svg>
