<?xml version="1.0" encoding="UTF-8" standalone="no"?>
<!-- Created with Inkscape (http://www.inkscape.org/) -->

<svg
   width="12.700051mm"
   height="12.411324mm"
   viewBox="0 0 12.700052 12.411324"
   version="1.1"
   id="svg11155"
   xml:space="preserve"
   inkscape:version="1.2.2 (732a01da63, 2022-12-09)"
   sodipodi:docname="Dashboard.svg"
   xmlns:inkscape="http://www.inkscape.org/namespaces/inkscape"
   xmlns:sodipodi="http://sodipodi.sourceforge.net/DTD/sodipodi-0.dtd"
   xmlns="http://www.w3.org/2000/svg"
   xmlns:svg="http://www.w3.org/2000/svg"><sodipodi:namedview
     id="namedview11157"
     pagecolor="#ffffff"
     bordercolor="#000000"
     borderopacity="0.25"
     inkscape:showpageshadow="2"
     inkscape:pageopacity="0.0"
     inkscape:pagecheckerboard="0"
     inkscape:deskcolor="#d1d1d1"
     inkscape:document-units="mm"
     showgrid="false"
     inkscape:zoom="2.6053829"
     inkscape:cx="25.71599"
     inkscape:cy="55.654008"
     inkscape:window-width="1360"
     inkscape:window-height="697"
     inkscape:window-x="-8"
     inkscape:window-y="-8"
     inkscape:window-maximized="1"
     inkscape:current-layer="layer1" /><defs
     id="defs11152" /><g
     inkscape:label="Layer 1"
     inkscape:groupmode="layer"
     id="layer1"
     transform="translate(-37.349467,-131.07937)"><path
       style="fill:#007a33;fill-opacity:1;stroke-width:0.0851985"
       d="m 39.065503,143.45133 c -0.03213,-0.0321 -0.05841,-0.63911 -0.05841,-1.34884 v -1.29044 l 0.255596,-0.24488 0.255595,-0.24488 v 0.52713 0.52713 h 0.59639 0.596388 v -1.13481 c 0,-1.1052 0.0055,-1.13966 0.213645,-1.32057 0.247244,-0.21498 0.28005,-0.22444 0.274658,-0.0793 -0.0022,0.0586 0.0021,0.65284 0.0095,1.32057 l 0.01343,1.21408 H 41.773 42.323704 l 0.02438,-0.83068 0.02438,-0.83069 h 1.363175 1.363176 l 0.02438,0.83069 0.02438,0.83068 h 0.542754 0.542754 l 0.06063,-0.80865 c 0.03335,-0.44477 0.03365,-1.09654 6.88e-4,-1.44838 l -0.05994,-0.63971 h -2.394228 -2.394227 l 0.244876,-0.25559 0.244875,-0.2556 h 2.329875 2.329874 l -0.429627,-0.56752 c -0.405709,-0.53594 -0.421733,-0.57625 -0.287845,-0.72419 0.07798,-0.0861 0.170468,-0.15667 0.205531,-0.15667 0.03506,0 0.307082,0.32398 0.604484,0.71997 l 0.540733,0.71996 0.978598,0.004 0.978598,0.004 -1.14722,-1.14958 -1.147221,-1.14959 0.188128,-0.18813 0.188129,-0.18813 1.410732,1.40139 c 1.71211,1.70077 1.722084,1.73143 0.575001,1.76712 l -0.786804,0.0245 -0.02258,2.48887 -0.02258,2.48888 h -1.874366 -1.874365 l -0.02311,-1.68563 -0.02311,-1.68564 -0.871474,0.0242 -0.871473,0.0243 -0.0426,1.66137 -0.0426,1.66137 -1.83725,0.0229 c -1.010487,0.0126 -1.863536,-0.003 -1.895665,-0.0355 z m 3.264323,-1.00979 v -0.5538 h -1.405774 -1.405775 v 0.5538 0.55379 h 1.405775 1.405774 z m 5.623098,0 v -0.5538 H 46.54715 45.141375 v 0.5538 0.55379 h 1.405775 1.405774 z m 0,-2.51336 v -1.44837 h -0.55379 -0.553789 v 1.44837 1.44837 h 0.553789 0.55379 z m -10.224,0.8944 -0.379457,-0.38664 2.872649,-2.87265 2.87265,-2.87265 0.680742,0.67675 0.680742,0.67675 1.44948,-1.44462 c 0.797214,-0.79454 1.449778,-1.4815 1.450144,-1.52659 3.43e-4,-0.0451 -0.159889,-0.24556 -0.356118,-0.44551 -0.196229,-0.19993 -0.340002,-0.37631 -0.319494,-0.39193 0.03071,-0.0234 2.311281,-0.57957 2.94478,-0.71816 0.178386,-0.039 0.176769,-0.021 -0.106179,1.18236 -0.158027,0.67211 -0.330284,1.38315 -0.382793,1.5801 l -0.09548,0.35808 -0.415231,-0.44328 -0.415231,-0.44329 -1.87971,1.91045 -1.87971,1.91046 -0.677783,-0.67381 -0.677784,-0.6738 -2.493385,2.4923 -2.493385,2.49232 z m -0.283809,-2.39957 c -0.03124,-0.0312 -0.05681,-0.1126 -0.05681,-0.18081 0,-0.0682 1.344063,-1.4482 2.986804,-3.06665 l 2.986805,-2.94263 -0.444916,-0.45051 c -0.378891,-0.38366 -0.428637,-0.47012 -0.33522,-0.58269 0.172611,-0.20799 0.309057,-0.16001 0.714463,0.25122 0.207883,0.21087 0.412552,0.38339 0.454819,0.38339 0.04226,0 0.246173,-0.17252 0.453122,-0.38339 0.406884,-0.41459 0.516335,-0.45472 0.685221,-0.25122 0.0934,0.11254 0.04442,0.19828 -0.329786,0.57718 l -0.439481,0.44501 0.891539,0.88851 c 0.838614,0.83577 0.883317,0.89759 0.753007,1.04159 -0.0762,0.0842 -0.168181,0.15307 -0.204415,0.15307 -0.03624,0 -0.46161,-0.38028 -0.945278,-0.84507 l -0.879398,-0.84508 -1.149787,1.12198 c -0.632382,0.61708 -1.85924,1.82117 -2.72635,2.67575 l -1.576565,1.55378 0.505832,0.001 0.505831,10e-4 -0.244877,0.2556 c -0.230278,0.24036 -0.283709,0.2556 -0.896323,0.2556 -0.358297,0 -0.677008,-0.0256 -0.708247,-0.0568 z"
       id="path11534" /></g></svg>
