<?xml version="1.0" encoding="UTF-8" standalone="no"?>
<!-- Created with Inkscape (http://www.inkscape.org/) -->

<svg
   width="48mm"
   height="58.368843mm"
   viewBox="0 0 48.000002 58.368845"
   version="1.1"
   id="svg13476"
   xml:space="preserve"
   inkscape:version="1.2.2 (732a01da63, 2022-12-09)"
   sodipodi:docname="Dojo.svg"
   xmlns:inkscape="http://www.inkscape.org/namespaces/inkscape"
   xmlns:sodipodi="http://sodipodi.sourceforge.net/DTD/sodipodi-0.dtd"
   xmlns="http://www.w3.org/2000/svg"
   xmlns:svg="http://www.w3.org/2000/svg"><sodipodi:namedview
     id="namedview13478"
     pagecolor="#ffffff"
     bordercolor="#000000"
     borderopacity="0.25"
     inkscape:showpageshadow="2"
     inkscape:pageopacity="0.0"
     inkscape:pagecheckerboard="0"
     inkscape:deskcolor="#d1d1d1"
     inkscape:document-units="mm"
     showgrid="false"
     inkscape:zoom="3.6845679"
     inkscape:cx="39.89613"
     inkscape:cy="73.550008"
     inkscape:window-width="1360"
     inkscape:window-height="697"
     inkscape:window-x="-8"
     inkscape:window-y="-8"
     inkscape:window-maximized="1"
     inkscape:current-layer="layer1" /><defs
     id="defs13473" /><g
     inkscape:label="Layer 1"
     inkscape:groupmode="layer"
     id="layer1"
     transform="translate(-24.198893,-170.86433)"><path
       style="fill:#007a33;fill-opacity:1;stroke-width:0.372485"
       d="m 48.566996,228.96198 c -1.939288,-0.39155 -3.538905,-1.01437 -3.537427,-1.37777 6.33e-4,-0.15881 1.802541,-0.29168 4.004206,-0.29564 3.629613,-0.004 4.184178,-0.10206 5.944828,-1.02365 2.844918,-1.48947 4.399807,-3.01533 5.6767,-5.5706 2.040629,-4.08368 1.458765,-7.42984 -1.993511,-11.46428 -0.964182,-1.12674 -2.353666,-3.13816 -3.087749,-4.46982 -1.923252,-3.48879 -2.955947,-4.75573 -4.531675,-5.55959 -3.890183,-1.98463 -6.109089,-1.40325 -10.429271,2.73252 -1.771349,1.69576 -4.695492,4.04725 -6.498095,5.22555 -4.174772,2.72892 -5.217431,4.20339 -5.412405,7.65399 -0.215747,3.81843 1.558444,6.36961 5.061705,7.27836 2.013705,0.52234 2.544737,0.47426 7.303964,-0.66119 2.885366,-0.68838 3.568478,-0.73246 5.399004,-0.34843 1.3231,0.2776 2.313763,0.72872 2.687247,1.22383 1.398525,1.85409 5.746198,1.1966 9.12075,-1.37927 0.908882,-0.69374 1.652512,-1.14578 1.652512,-1.00447 0,0.6395 -2.052195,3.1206 -3.289164,3.97655 -3.017983,2.08841 -5.64443,2.48484 -10.423626,1.57341 -2.509493,-0.47857 -2.96511,-0.4608 -5.773514,0.22525 -3.753399,0.91688 -7.550903,0.77949 -9.753739,-0.35283 -3.602261,-1.85172 -5.843456,-5.34135 -6.082692,-9.471 -0.288646,-4.98261 1.819549,-8.47883 7.254897,-12.03141 1.813689,-1.18547 4.660666,-3.47577 6.326618,-5.08956 4.607196,-4.46295 7.739437,-5.49867 12.37302,-4.09125 3.397587,1.03198 5.780091,3.14678 7.691527,6.82725 0.775147,1.49255 2.296935,3.88702 3.381745,5.3211 2.81974,3.72755 3.604369,5.7138 3.627734,9.18349 0.01672,2.48194 -0.13647,3.1675 -1.182882,5.29304 -2.822173,5.73262 -9.2874,8.93237 -15.510707,7.67647 z m -6.704722,-10.74599 c -0.6146,-0.1619 -1.662213,-0.57786 -2.328026,-0.92467 -2.038869,-1.06211 -1.465255,-2.94651 1.206063,-3.96212 1.355673,-0.51544 9.248839,-0.74394 10.834224,-0.31368 1.536072,0.41707 2.859573,1.8738 2.703539,2.97599 -0.218828,1.5457 -2.4871,2.30886 -7.195439,2.42092 -2.256597,0.0537 -4.605762,-0.0352 -5.220361,-0.19622 z m 2.048666,-3.73124 c 0,-0.83936 -1.81734,-0.99295 -2.815561,-0.23801 -0.668848,0.50589 -0.590424,0.54778 1.046258,0.55873 0.973118,0.004 1.769303,-0.1377 1.769303,-0.32072 z m -0.372499,-2.69029 c -2.541134,-0.76581 -3.361076,-2.36667 -1.77954,-3.4744 0.6243,-0.4373 1.809791,-0.57984 4.821526,-0.57984 3.699534,0 4.070656,0.0669 5.038784,0.90861 0.856964,0.74509 0.971864,1.03008 0.63826,1.58309 -0.223755,0.37087 -0.884786,0.90861 -1.468946,1.19488 -1.357081,0.66506 -5.556517,0.87804 -7.250084,0.36779 z m 6.890968,-2.56434 c -0.126615,-0.20501 -0.733063,-0.37263 -1.347662,-0.37263 -0.650121,0 -1.021177,0.15574 -0.887246,0.37263 0.126616,0.20502 0.733059,0.37264 1.347658,0.37264 0.650121,0 1.021177,-0.15574 0.88725,-0.37264 z m -6.433617,-2.62205 c -1.34731,-0.54113 -1.465584,-1.4735 -0.312711,-2.46518 1.847486,-1.58911 6.387001,-0.77645 6.117567,1.0952 -0.215088,1.49426 -3.541071,2.27921 -5.804856,1.36998 z m 1.032589,-1.84776 c 0,-0.20501 -0.167618,-0.37263 -0.372499,-0.37263 -0.204881,0 -0.372499,0.16762 -0.372499,0.37263 0,0.20501 0.167618,0.37263 0.372499,0.37263 0.204881,0 0.372499,-0.16762 0.372499,-0.37263 z m 19.875156,0.62995 c 2.820457,-1.8079 3.888281,-3.61778 4.218049,-7.14915 0.375315,-4.01936 -1.260576,-5.44899 -3.552588,-3.10467 -2.291185,2.34348 -2.874738,6.5071 -1.166811,8.32507 l 0.779081,0.82929 -0.849098,0.22217 c -1.851238,0.48412 -3.659437,-1.95756 -3.659437,-4.94143 0,-2.42602 1.315248,-5.35727 3.171554,-7.06838 2.839375,-2.61722 6.141456,-2.13055 7.852132,1.15736 0.738584,1.41952 0.64767,5.01772 -0.172237,6.81633 -1.363105,2.9902 -4.324911,5.41226 -6.567892,5.37091 -0.715733,-0.0132 -0.717806,-0.0308 -0.05275,-0.45741 z m -38.342953,-3.93973 c -3.38816,-2.0661 -3.074995,-8.88754 0.580966,-12.65476 2.509106,-2.58546 5.473684,-2.81326 7.441674,-0.57184 2.861346,3.25887 1.427103,9.872 -2.75836,12.71843 -2.046163,1.39154 -3.573837,1.539 -5.26428,0.50817 z m 4.534363,-3.59243 c 1.913261,-2.02862 2.606676,-5.49519 1.43408,-7.1693 -0.731598,-1.04452 -1.644179,-1.05041 -2.955317,-0.0176 -1.974185,1.55291 -3.091242,5.8167 -2.038997,7.78284 0.619492,1.15754 2.148692,0.90219 3.560234,-0.59449 z m 22.893205,-3.58883 c -2.05286,-1.39506 -2.815707,-3.05158 -2.801963,-6.08449 0.01408,-3.06746 1.151052,-5.6636 3.311737,-7.56068 4.14871,-3.64263 9.154683,-1.10584 9.154683,4.63919 0,5.12243 -2.909942,9.27901 -6.793899,9.70439 -1.240972,0.13594 -1.866869,-0.0176 -2.870558,-0.69841 z m 4.452481,-2.17644 c 2.154473,-2.30636 2.940513,-7.1906 1.460098,-9.07263 -0.883417,-1.12308 -1.440138,-1.20496 -2.935379,-0.43158 -2.208722,1.14218 -3.65568,5.05912 -2.931732,7.9363 0.69499,2.76209 2.643886,3.45552 4.407013,1.56808 z m -19.10307,0.32512 c -1.579882,-1.17843 -2.132335,-2.59008 -2.12318,-5.4252 0.02288,-7.10797 6.480445,-12.62498 10.572173,-9.03241 1.856126,1.62972 2.390093,4.16977 1.558729,7.41492 -0.763414,2.9799 -1.773852,4.63035 -3.680215,6.01133 -1.064322,0.771 -1.93224,1.08349 -3.020605,1.08754 -1.12323,0.004 -1.379387,0.10118 -0.968445,0.36691 0.44172,0.28552 0.3637,0.35987 -0.372499,0.35503 -0.512164,-0.003 -1.396853,-0.35327 -1.965971,-0.77795 z m 3.832409,-2.00029 c 2.237235,-1.15692 4.169902,-6.07569 3.356101,-8.54157 -0.376591,-1.14108 -1.289102,-2.07213 -2.030858,-2.07213 -0.115309,0 -0.873444,0.59969 -1.684738,1.33263 -2.610666,2.35857 -3.876544,7.47229 -2.251911,9.09691 0.892925,0.89295 1.199068,0.91451 2.611406,0.18433 z m 27.044774,-0.30224 c -0.999347,-0.79955 -1.045299,-0.9479 -0.66276,-2.13984 0.226086,-0.70435 0.557825,-1.78352 0.737246,-2.39812 l 0.326218,-1.11746 0.810145,1.30368 c 0.601687,0.96827 0.784127,1.77539 0.709033,3.13684 -0.05561,1.00826 -0.268717,1.88735 -0.473589,1.95361 -0.204881,0.0664 -0.855697,-0.26617 -1.446284,-0.73871 z M 29.756515,184.7428 c 0,-1.33008 3.266383,-5.149 3.879544,-4.53585 0.119796,0.11966 -0.747704,3.95314 -1.060336,4.68543 -0.01408,0.0308 -0.654142,0.17729 -1.422391,0.32072 -1.228412,0.22965 -1.396817,0.17289 -1.396817,-0.47039 z m 30.410623,-7.03618 c -0.914939,-0.49493 -1.032571,-0.73453 -0.83809,-1.70693 0.124416,-0.62212 0.226219,-1.80992 0.226219,-2.63948 v -1.5083 l 0.937477,0.88072 c 1.043315,0.98015 1.810174,3.09663 1.612759,4.45112 -0.163835,1.12423 -0.606197,1.24354 -1.938378,0.52287 z m -14.300667,-2.26289 c -0.987692,-0.19005 -1.067071,-0.90381 -0.240824,-2.16482 0.683912,-1.04376 2.742847,-2.41458 3.62667,-2.41458 0.507491,0 0.467403,0.24461 -0.266386,1.62453 -0.475085,0.89352 -0.95753,1.98304 -1.0721,2.42118 -0.206421,0.78935 -0.424676,0.84623 -2.04736,0.53369 z"
       id="path13855" /></g></svg>
