<?xml version="1.0" encoding="UTF-8" standalone="no"?>
<!-- Created with Inkscape (http://www.inkscape.org/) -->

<svg
   width="12.699999mm"
   height="12.891798mm"
   viewBox="0 0 12.699999 12.891798"
   version="1.1"
   id="svg15434"
   xml:space="preserve"
   inkscape:version="1.2.2 (732a01da63, 2022-12-09)"
   sodipodi:docname="Kitichen.svg"
   xmlns:inkscape="http://www.inkscape.org/namespaces/inkscape"
   xmlns:sodipodi="http://sodipodi.sourceforge.net/DTD/sodipodi-0.dtd"
   xmlns="http://www.w3.org/2000/svg"
   xmlns:svg="http://www.w3.org/2000/svg"><sodipodi:namedview
     id="namedview15436"
     pagecolor="#ffffff"
     bordercolor="#000000"
     borderopacity="0.25"
     inkscape:showpageshadow="2"
     inkscape:pageopacity="0.0"
     inkscape:pagecheckerboard="0"
     inkscape:deskcolor="#d1d1d1"
     inkscape:document-units="mm"
     showgrid="false"
     inkscape:zoom="1.8422839"
     inkscape:cx="33.111075"
     inkscape:cy="93.362375"
     inkscape:window-width="1360"
     inkscape:window-height="697"
     inkscape:window-x="-8"
     inkscape:window-y="-8"
     inkscape:window-maximized="1"
     inkscape:current-layer="layer1" /><defs
     id="defs15431" /><g
     inkscape:label="Layer 1"
     inkscape:groupmode="layer"
     id="layer1"
     transform="translate(-67.621861,-138.13712)"><path
       style="fill:#ffcd00;fill-opacity:1;stroke-width:0.0889034"
       d="m 68.775544,150.84718 c -0.145019,-0.27098 0.107165,-1.03496 0.488805,-1.48081 l 0.315504,-0.3686 -0.495767,-0.49577 c -0.807788,-0.80779 -1.462225,-2.47753 -1.462225,-3.73076 0,-0.49893 0.136736,-0.64 0.798791,-0.82406 0.493676,-0.13725 0.512605,-0.15318 0.446691,-0.37591 -0.168977,-0.57098 -0.386366,-0.98578 -0.542625,-1.03537 -0.320798,-0.10186 -0.613953,-0.60188 -0.613953,-1.04726 0,-0.33211 0.05249,-0.47059 0.274024,-0.7229 0.727353,-0.82841 2.037464,-0.37768 2.037464,0.70096 0,0.30442 0.143569,0.5716 0.999369,1.8598 l 0.999376,1.50431 1.112087,-0.0589 c 0.611638,-0.0324 1.332113,-0.11066 1.601049,-0.17388 l 0.488972,-0.11495 -0.577879,-0.10395 c -0.317826,-0.0572 -1.05003,-0.13086 -1.627121,-0.16371 -0.921515,-0.0525 -1.064919,-0.0821 -1.177967,-0.24351 -0.07077,-0.10112 -0.128724,-0.21488 -0.128724,-0.2529 0,-0.21306 3.123471,0.0614 3.805881,0.33453 0.450121,0.1801 0.508262,0.34575 0.427251,1.21732 -0.115756,1.24556 -0.715161,2.57191 -1.515575,3.35365 l -0.405547,0.3961 0.256493,0.27068 c 0.31476,0.33216 0.499914,0.69681 0.580988,1.14423 0.110369,0.60917 0.192136,0.59336 -3.068344,0.59336 -2.849441,0 -2.92214,-0.004 -3.017018,-0.18166 z m 5.514077,-0.46771 c 0,-0.16471 -0.464832,-0.86648 -0.743156,-1.12197 -0.129134,-0.11855 -0.234789,-0.25098 -0.234789,-0.2943 0,-0.0434 0.294327,-0.3664 0.65406,-0.71795 0.752973,-0.73587 1.119521,-1.41104 1.334716,-2.4586 0.07497,-0.365 0.121732,-0.67825 0.103849,-0.69611 -0.01785,-0.0179 -0.519686,0.0308 -1.115174,0.10801 -1.666676,0.21623 -3.609487,0.18687 -5.655422,-0.0855 l -0.45503,-0.0606 0.07325,0.46335 c 0.101675,0.6432 0.23073,1.0163 0.593063,1.71456 0.602499,1.16107 1.632909,1.83177 2.895985,1.885 0.644273,0.0272 0.810631,0.10523 0.721136,0.33847 -0.119064,0.31026 -1.223423,0.27707 -2.032738,-0.0611 -0.26162,-0.1093 -0.326058,-0.10885 -0.48637,0.003 -0.196986,0.13798 -0.632003,0.82343 -0.632003,0.99586 0,0.076 0.657496,0.10332 2.489291,0.10332 1.987359,0 2.489299,-0.0234 2.489299,-0.11594 z m -3.866465,-6.97367 c -0.811002,-1.21504 -0.934324,-1.44842 -0.934324,-1.76822 0,-0.48936 -0.230245,-0.77436 -0.616698,-0.76337 -0.763914,0.0217 -0.874514,0.98463 -0.144953,1.26201 0.122698,0.0466 0.275981,0.28502 0.438264,0.68156 0.68564,1.67532 0.789503,1.89071 0.929555,1.9277 0.08223,0.0217 0.39993,0.0441 0.705995,0.0498 l 0.556483,0.0105 z m -1.168884,1.08863 c -0.05516,-0.14374 -0.216942,-0.16473 -0.560809,-0.0728 -0.201437,0.0539 -0.204719,0.0632 -0.04445,0.1259 0.09517,0.0373 0.281808,0.0706 0.414739,0.0739 0.179677,0.004 0.228563,-0.0279 0.190522,-0.12711 z m 6.279993,3.77668 c 0,-0.0262 0.270039,-0.0904 0.600098,-0.14253 0.688081,-0.1086 1.419485,-0.44277 1.93365,-0.88352 l 0.355616,-0.30481 -0.727845,0.36957 c -0.550222,0.27938 -0.853967,0.37701 -1.244645,0.40003 l -0.516809,0.0305 0.444514,-0.15043 0.444524,-0.15043 -0.311169,-0.0536 -0.311158,-0.0536 0.400064,-0.19769 c 0.220038,-0.10872 0.326554,-0.17709 0.236712,-0.15191 -0.08988,0.0252 -0.329883,0.0664 -0.533421,0.0915 l -0.370066,0.0457 0.444514,-0.15956 c 1.612945,-0.57894 2.632072,-2.17635 2.509091,-3.93285 -0.105592,-1.50831 -0.89454,-2.63057 -2.193671,-3.12048 -0.756542,-0.2853 -1.808525,-0.21135 -2.577879,0.18123 -0.703065,0.35875 -1.44243,1.09613 -1.653656,1.64922 -0.100909,0.26414 -0.181132,0.37157 -0.224792,0.30093 -0.04158,-0.0672 -0.08915,0.0259 -0.122519,0.23957 -0.161801,1.03546 -0.170915,1.05944 -0.413569,1.0876 -0.198573,0.0231 -0.292772,-0.0623 -0.656695,-0.59491 -0.490537,-0.71792 -0.492362,-0.82121 -0.03108,-1.75824 0.2602,-0.52853 0.55399,-0.91151 0.392022,-0.51102 -0.164804,0.40751 -0.215647,0.66193 -0.120524,0.60313 0.065,-0.0401 0.0776,0.0242 0.03906,0.19832 -0.04316,0.19503 -0.0032,0.15648 0.163439,-0.15843 0.12129,-0.2289 0.267341,-0.44511 0.324557,-0.48048 0.06857,-0.0423 0.08274,-0.0216 0.04169,0.0606 -0.03423,0.0687 0.0095,0.0252 0.09744,-0.0966 0.894382,-1.24029 2.401022,-2.03083 3.671381,-1.9264 0.829134,0.0681 1.663683,0.35477 2.270314,0.77971 0.289705,0.20295 0.472665,0.30383 0.406585,0.22421 -0.06605,-0.0796 -0.365371,-0.30979 -0.665075,-0.51148 -0.565319,-0.38043 -0.389858,-0.39586 0.287208,-0.0253 0.213191,0.1167 0.418923,0.19283 0.457176,0.16918 0.111779,-0.0691 1.08844,1.03215 1.357514,1.53066 0.746053,1.38218 0.782407,3.38672 0.08673,4.78161 -0.536832,1.07639 -1.579198,2.06688 -2.579728,2.45133 -0.464642,0.17855 -1.709613,0.30206 -1.709613,0.16961 z m -3.399327,-8.30425 c 0.09335,-0.11868 0.306286,-0.32591 0.473201,-0.46053 0.204558,-0.16497 0.159679,-0.0946 -0.137702,0.21577 -0.47317,0.49391 -0.610011,0.59375 -0.335499,0.24476 z m -0.133302,-0.31474 c 0.643275,-0.91841 3.141132,-1.80373 4.021601,-1.42538 0.121238,0.0521 -0.03549,0.0784 -0.492521,0.0826 -1.184383,0.011 -2.265284,0.40528 -3.090636,1.12728 -0.479459,0.41943 -0.634781,0.49575 -0.438444,0.21544 z m 2.95476,-1.16087 c 0.171136,-0.0714 1.001823,-0.12033 0.926073,-0.0545 -0.02037,0.0178 -0.277085,0.0539 -0.570466,0.0804 -0.322058,0.0291 -0.462963,0.0189 -0.355607,-0.0259 z"
       id="path15813" /></g></svg>
